<svg xmlns="http://www.w3.org/2000/svg" width="38.43" height="38.434" viewBox="0 0 38.43 38.434">
  <g id="iconfinder_Configuration-01_1976051" transform="translate(0 0)">
    <path id="Контур_964" data-name="Контур 964" d="M39.868,18.318l.712-1.912L38.547,11.5l-1.855-.847-2.148.716-.536-.168a16.228,16.228,0,0,0-2.353-2.349l-.168-.54.716-2.15-.847-1.855L26.45,2.275l-1.91.714L23.526,5.016l-.5.261a16.181,16.181,0,0,0-3.324,0l-.5-.259L18.191,2.991l-1.91-.716L11.373,4.308l-.847,1.855.716,2.146-.17.538A16.131,16.131,0,0,0,8.724,11.2l-.538.168-2.148-.716L4.183,11.5,2.15,16.406l.712,1.912,2.027,1.014.261.5a16.319,16.319,0,0,0,0,3.324l-.259.5L2.864,24.668l-.712,1.912,2.033,4.906,1.855.847,2.146-.714.536.168a16.228,16.228,0,0,0,2.353,2.349l.168.536-.716,2.15.849,1.855,4.906,2.033,1.912-.714,1.012-2.025.5-.261a16.2,16.2,0,0,0,3.326,0l.5.261,1.012,2.023,1.91.712,4.906-2.033.847-1.855-.714-2.146.168-.536a16.228,16.228,0,0,0,2.349-2.353l.536-.168,2.15.716,1.855-.847,2.033-4.908-.712-1.912-2.027-1.014-.261-.5a16.338,16.338,0,0,0,0-3.326l.259-.5Zm-3.353-.341-.786,1.506.033.277a14.414,14.414,0,0,1,0,3.455l-.033.279L36.512,25l1.912.956.217.581-1.49,3.6-.564.257-2.029-.675-1.623.509-.174.22a14.407,14.407,0,0,1-2.44,2.446l-.22.172-.509,1.623.675,2.027-.257.564-3.6,1.49-.581-.217-.956-1.91-1.506-.788-.277.033a14.431,14.431,0,0,1-3.457,0l-.277-.033-1.508.788L16.9,38.551l-.581.217-3.6-1.488-.257-.564.675-2.029-.509-1.623-.22-.174a14.418,14.418,0,0,1-2.446-2.442l-.172-.22-1.621-.509-2.027.677-.564-.257-1.49-3.6.217-.581,1.65-.827.295-.2L7,23.5l-.033-.277a14.415,14.415,0,0,1,0-3.455l.033-.279-.788-1.508-1.912-.956-.218-.581,1.49-3.6.564-.257,2.029.675,1.623-.509.174-.22a14.407,14.407,0,0,1,2.44-2.446l.22-.174.507-1.623-.673-2.023.257-.564,3.6-1.49.581.217.956,1.91,1.506.788.277-.033a14.415,14.415,0,0,1,3.455,0l.279.033,1.508-.79.958-1.914.581-.217,3.6,1.49.257.564-.675,2.029L30.1,9.918l.22.174a14.418,14.418,0,0,1,2.446,2.442l.172.22,1.623.509,2.027-.675.564.257,1.49,3.6-.217.581Z" transform="translate(-2.15 -2.275)"/>
    <path id="Контур_965" data-name="Контур 965" d="M16.829,7a9.9,9.9,0,1,0,9.92,9.9A9.922,9.922,0,0,0,16.829,7Zm0,18.005a8.1,8.1,0,1,1,8.115-8.1A8.117,8.117,0,0,1,16.829,25Z" transform="translate(2.375 2.215)"/>
  </g>
</svg>
