<svg xmlns="http://www.w3.org/2000/svg" width="35.2" height="32" viewBox="0 0 35.2 32">
  <defs>
    <style>
      .cls-1, .cls-2 {
        fill: #4b4b4b;
      }

      .cls-1 {
        fill-rule: evenodd;
      }
    </style>
  </defs>
  <g id="Layer" transform="translate(-1 -2)">
    <g id="Vrstva_98" data-name="Vrstva 98" transform="translate(1 2)">
      <path id="Контур_72" data-name="Контур 72" class="cls-1" d="M31.4,5.2H29.8V3.6a1.6,1.6,0,1,0-3.2,0V5.2h-16V3.6a1.6,1.6,0,1,0-3.2,0V5.2H5.8A4.8,4.8,0,0,0,1,10V29.2A4.8,4.8,0,0,0,5.8,34H31.4a4.8,4.8,0,0,0,4.8-4.8V10a4.8,4.8,0,0,0-4.8-4.8ZM4.2,10A1.6,1.6,0,0,1,5.8,8.4H31.4A1.6,1.6,0,0,1,33,10v1.6H4.2ZM33,29.2a1.6,1.6,0,0,1-1.6,1.6H5.8a1.6,1.6,0,0,1-1.6-1.6V14.8H33Z" transform="translate(-1 -2)"/>
      <rect id="Прямоугольник_4" data-name="Прямоугольник 4" class="cls-2" width="5" height="5" rx="0.8" transform="translate(6.6 16)"/>
      <rect id="Прямоугольник_5" data-name="Прямоугольник 5" class="cls-2" width="5" height="5" rx="0.8" transform="translate(14.6 16)"/>
    </g>
  </g>
</svg>
