<svg xmlns="http://www.w3.org/2000/svg" width="37.334" height="39.862" viewBox="0 0 37.334 39.862">
  <g id="speech-bubble" transform="translate(0 0)">
    <g id="Сгруппировать_424" data-name="Сгруппировать 424" transform="translate(0 0)">
      <path id="Контур_966" data-name="Контур 966" d="M34.386,39.862a1.251,1.251,0,0,1-.584-.146L23.347,34.175a20.085,20.085,0,0,1-4.195.459C8.859,34.634.485,26.863.485,17.316S8.859,0,19.152,0,37.819,7.768,37.819,17.316a16.769,16.769,0,0,1-5.8,12.524c-.175,2.867,2.316,6.936,3.336,8.316a1.033,1.033,0,0,1-.107,1.356A1.216,1.216,0,0,1,34.386,39.862ZM23.524,31.924a1.265,1.265,0,0,1,.582.146l7.2,3.816c-1-2-1.9-4.536-1.576-6.712a1.063,1.063,0,0,1,.373-.657,14.688,14.688,0,0,0,5.371-11.2c0-8.347-7.322-15.14-16.322-15.14S2.833,8.971,2.833,17.318s7.32,15.14,16.319,15.14a17.471,17.471,0,0,0,4.077-.5A1.13,1.13,0,0,1,23.524,31.924Z" transform="translate(-0.485)" fill="#1877f2"/>
    </g>
  </g>
</svg>
