<svg xmlns="http://www.w3.org/2000/svg" width="31.181" height="31.181" viewBox="0 0 31.181 31.181">
  <g id="Layer_2" transform="translate(-46.66 -46.66)">
    <g id="Сгруппировать_431" data-name="Сгруппировать 431" transform="translate(46.66 46.66)">
      <path id="Контур_978" data-name="Контур 978" d="M62.251,46.66A15.591,15.591,0,1,0,77.841,62.251,15.59,15.59,0,0,0,62.251,46.66Zm0,4.783a2.3,2.3,0,1,1-2.3,2.3A2.3,2.3,0,0,1,62.251,51.443Zm2.311,19.3a2.311,2.311,0,0,1-2.311,2.311h0a2.311,2.311,0,0,1-2.311-2.311V62.37a2.311,2.311,0,0,1,2.311-2.311h0a2.311,2.311,0,0,1,2.311,2.311Z" transform="translate(-46.66 -46.66)" fill="#fff"/>
    </g>
  </g>
</svg>
