<svg xmlns="http://www.w3.org/2000/svg" width="310.81" height="58.675" viewBox="0 0 310.81 58.675">
  <defs>
    <style>
      .cls-1 {
        fill: #f5486b;
      }

      .cls-2 {
        fill: #dd3d5e;
      }

      .cls-3 {
        fill: #fff;
        font-size: 26px;
        font-family: Nunito-Bold, Nunito;
        font-weight: 700;
      }

      .cls-4 {
        opacity: 0.4;
      }

      .cls-5 {
        fill: #4b4b4b;
      }
    </style>
  </defs>
  <g id="Сгруппировать_394" data-name="Сгруппировать 394" transform="translate(-990.616 -242.936)">
    <g id="Сгруппировать_389" data-name="Сгруппировать 389" transform="translate(689.529 -275.156)">
      <g id="heart" transform="translate(301.087 539.545)">
        <path id="Контур_1" data-name="Контур 1" class="cls-1" d="M30,0a10.942,10.942,0,0,0-9.53,5.548A10.942,10.942,0,0,0,10.942,0C4.9,0,0,5.576,0,11.588c0,15.1,20.471,25.633,20.471,25.633S40.943,26.687,40.943,11.588C40.943,5.576,36.044,0,30,0Zm0,0" transform="translate(0 0)"/>
        <path id="Контур_2" data-name="Контур 2" class="cls-2" d="M2.81,11.587C2.81,6.025,6.984.846,12.369.1A10.835,10.835,0,0,0,10.886,0C4.874,0,0,5.576,0,11.587c0,15.1,20.366,25.633,20.366,25.633s.527-.273,1.4-.789C17.17,33.726,2.81,24.268,2.81,11.587Zm0,0" transform="translate(0 0)"/>
      </g>
      <text id="A" class="cls-3" transform="translate(311.471 566.156)"><tspan x="0" y="0">A</tspan></text>
    </g>
    <g id="Сгруппировать_393" data-name="Сгруппировать 393" class="cls-4" transform="translate(1275.681 236.99)">
      <path id="Контур_939" data-name="Контур 939" class="cls-5" d="M25,3.212H1.242A1.46,1.46,0,0,1,0,1.606,1.459,1.459,0,0,1,1.242,0H25A1.459,1.459,0,0,1,26.24,1.606,1.46,1.46,0,0,1,25,3.212Z" transform="translate(7.191 6.077) rotate(45)"/>
      <path id="Контур_941" data-name="Контур 941" class="cls-5" d="M25,3.07H1.242A1.412,1.412,0,0,1,0,1.535,1.412,1.412,0,0,1,1.242,0H25A1.412,1.412,0,0,1,26.24,1.535,1.412,1.412,0,0,1,25,3.07Z" transform="translate(25.695 8.117) rotate(135)"/>
    </g>
  </g>
</svg>
