<svg xmlns="http://www.w3.org/2000/svg" width="20.826" height="20.957" viewBox="0 0 20.826 20.957">
  <g id="Сгруппировать_394" data-name="Сгруппировать 394" transform="translate(-1280.6 -242.936)">
    <g id="Сгруппировать_393" data-name="Сгруппировать 393" transform="translate(1275.681 236.99)">
      <path id="Контур_939" data-name="Контур 939" d="M25,3.212H1.242A1.46,1.46,0,0,1,0,1.606,1.459,1.459,0,0,1,1.242,0H25A1.459,1.459,0,0,1,26.24,1.606,1.46,1.46,0,0,1,25,3.212Z" transform="translate(7.191 6.077) rotate(45)" fill="#fff"/>
      <path id="Контур_941" data-name="Контур 941" d="M25,3.07H1.242A1.412,1.412,0,0,1,0,1.535,1.412,1.412,0,0,1,1.242,0H25A1.412,1.412,0,0,1,26.24,1.535,1.412,1.412,0,0,1,25,3.07Z" transform="translate(25.695 8.117) rotate(135)" fill="#fff"/>
    </g>
  </g>
</svg>
