<svg xmlns="http://www.w3.org/2000/svg" width="143" height="49.081" viewBox="0 0 143 49.081">
  <defs>
    <style>
      .cls-1, .cls-2 {
        fill: #fff;
      }

      .cls-1 {
        font-size: 35px;
      }

      .cls-1, .cls-4 {
        font-family: Nunito-Bold, Nunito;
        font-weight: 700;
      }

      .cls-3 {
        fill: #eaeaea;
      }

      .cls-4 {
        font-size: 34px;
      }
    </style>
  </defs>
  <g id="Сгруппировать_387" data-name="Сгруппировать 387" transform="translate(-273.416 -582.545)">
    <text id="MI" class="cls-1" transform="translate(273.416 618.085)"><tspan x="0" y="0">MI</tspan></text>
    <text id="MI-2" data-name="MI" class="cls-1" transform="translate(376.416 618.085)"><tspan x="0" y="0">MI</tspan></text>
    <g id="Сгруппировать_330" data-name="Сгруппировать 330" transform="translate(317.561 582.545)">
      <g id="heart" transform="translate(0 0)">
        <path id="Контур_1" data-name="Контур 1" class="cls-2" d="M39.56,0A14.428,14.428,0,0,0,26.994,7.316,14.428,14.428,0,0,0,14.428,0C6.46,0,0,7.353,0,15.28c0,19.91,26.994,33.8,26.994,33.8S53.988,35.19,53.988,15.28C53.988,7.353,47.528,0,39.56,0Zm0,0" transform="translate(0 0)"/>
        <path id="Контур_2" data-name="Контур 2" class="cls-3" d="M3.7,15.279C3.7,7.945,9.209,1.116,16.31.133A14.287,14.287,0,0,0,14.354,0C6.427,0,0,7.352,0,15.279c0,19.91,26.855,33.8,26.855,33.8s.695-.36,1.852-1.041C22.641,44.471,3.7,32,3.7,15.279Zm0,0" transform="translate(0 0)"/>
      </g>
      <text id="A" class="cls-4" transform="translate(13.855 34.54)"><tspan x="0" y="0">A</tspan></text>
    </g>
  </g>
</svg>
