<svg xmlns="http://www.w3.org/2000/svg" width="143" height="104" viewBox="0 0 143 104">
  <defs>
    <style>
      .cls-1 {
        fill: #fff;
        fill-rule: evenodd;
      }
    </style>
  </defs>
  <g id="miu" transform="translate(-1 -4)">
    <g id="Artboard-1" transform="translate(1 4)">
      <path id="device-camera-capture-photo-glyph" class="cls-1" d="M357.3,604H382s13,0,13,13v65c0,13-13,13-13,13H265s-13,0-13-13V617c0-13,13-13,13-13h24.7l6.1-10.173A6.42,6.42,0,0,1,300.75,591h45.5a6.486,6.486,0,0,1,4.946,2.827L357.3,604Zm-33.8,71.5a29.25,29.25,0,1,0-29.25-29.25A29.253,29.253,0,0,0,323.5,675.5Zm0-6.5a22.75,22.75,0,1,0-22.75-22.75A22.75,22.75,0,0,0,323.5,669Zm39-39a6.5,6.5,0,1,0-6.5-6.5A6.5,6.5,0,0,0,362.5,630Zm-89.557-35.75a1.373,1.373,0,0,0-1.443,1.3v3.9a1.378,1.378,0,0,0,1.443,1.3h10.114a1.373,1.373,0,0,0,1.443-1.3v-3.9a1.378,1.378,0,0,0-1.443-1.3Z" transform="translate(-252 -591)"/>
    </g>
  </g>
</svg>
