<svg xmlns="http://www.w3.org/2000/svg" width="143" height="48.933" viewBox="0 0 143 48.933">
  <defs>
    <style>
      .cls-1, .cls-2 {
        fill: #f5486b;
      }

      .cls-1, .cls-4 {
        font-size: 34px;
        font-family: Nunito-Bold, Nunito;
        font-weight: 700;
      }

      .cls-3 {
        fill: #dd3d5e;
      }

      .cls-4 {
        fill: #fff;
      }
    </style>
  </defs>
  <g id="Сгруппировать_373" data-name="Сгруппировать 373" transform="translate(-272.234 -539.545)">
    <text id="MI" class="cls-1" transform="translate(272.234 574.012)"><tspan x="0" y="0">MI</tspan></text>
    <text id="MI-2" data-name="MI" class="cls-1" transform="translate(376.234 574.012)"><tspan x="0" y="0">MI</tspan></text>
    <g id="Сгруппировать_1" data-name="Сгруппировать 1" transform="translate(317.494 539.545)">
      <g id="heart" transform="translate(0 0)">
        <path id="Контур_1" data-name="Контур 1" class="cls-2" d="M39.441,0A14.385,14.385,0,0,0,26.913,7.294,14.385,14.385,0,0,0,14.384,0C6.44,0,0,7.331,0,15.234c0,19.85,26.913,33.7,26.913,33.7s26.913-13.849,26.913-33.7C53.826,7.331,47.385,0,39.441,0Zm0,0" transform="translate(0 0)"/>
        <path id="Контур_2" data-name="Контур 2" class="cls-3" d="M3.693,15.234c0-7.312,5.488-14.121,12.567-15.1A14.244,14.244,0,0,0,14.311,0C6.408,0,0,7.33,0,15.233c0,19.85,26.775,33.7,26.775,33.7s.692-.359,1.847-1.038C22.573,44.338,3.694,31.9,3.694,15.233Zm0,0" transform="translate(0 0)"/>
      </g>
      <text id="A" class="cls-4" transform="translate(13.74 34.466)"><tspan x="0" y="0">A</tspan></text>
    </g>
  </g>
</svg>
