<svg xmlns="http://www.w3.org/2000/svg" width="32.949" height="30.663" viewBox="0 0 32.949 30.663">
  <g id="go-back-arrow" transform="translate(0 0)" opacity="0.4">
    <path id="Контур_969" data-name="Контур 969" d="M5.42,7.766c-.446.584-.761.691-.761.2v-.9A2.33,2.33,0,0,0,0,7.065v7.988a2.33,2.33,0,0,0,2.33,2.33h7.988a2.33,2.33,0,0,0,0-4.659H9.456c-.476,0-.61-.544-.206-1.158a10.006,10.006,0,1,1,8.366,15.491,2.663,2.663,0,1,0,0,5.325A15.332,15.332,0,1,0,5.42,7.766Z" transform="translate(0 -1.717)" fill="#4b4b4b"/>
  </g>
</svg>
