<svg xmlns="http://www.w3.org/2000/svg" width="1531.773" height="1468.18" viewBox="0 0 1531.773 1468.18">
  <defs>
    <style>
      .cls-1 {
        fill: #1f2041;
      }

      .cls-2 {
        fill: #171833;
      }
    </style>
  </defs>
  <g id="Сгруппировать_379" data-name="Сгруппировать 379" transform="translate(346.262 20) rotate(21)">
    <g id="heart" transform="translate(39.512 -36.59)">
      <path id="Контур_1" data-name="Контур 1" class="cls-1" d="M891.252,0c-117.366.01-225.608,63.017-283.1,164.816C550.654,63.017,442.411.01,325.045,0,145.535,0,0,165.651,0,344.24c0,448.555,608.149,761.5,608.149,761.5S1216.3,792.794,1216.3,344.24C1216.3,165.651,1070.763,0,891.252,0Zm0,0" transform="translate(0 0.001)"/>
      <path id="Контур_2" data-name="Контур 2" class="cls-2" d="M83.451,344.24C83.451,179.007,207.458,25.143,367.436,3A321.867,321.867,0,0,0,323.377,0C144.788,0,0,165.651,0,344.239c0,448.555,605.027,761.5,605.027,761.5s15.647-8.119,41.726-23.451c-136.689-80.386-563.3-361.345-563.3-738.05Zm0,0" transform="translate(0.001 0)"/>
    </g>
  </g>
</svg>
