<svg id="Сгруппировать_425" data-name="Сгруппировать 425" xmlns="http://www.w3.org/2000/svg" width="36.281" height="32.983" viewBox="0 0 36.281 32.983">
  <g id="Сгруппировать_389" data-name="Сгруппировать 389" transform="translate(0 0)">
    <g id="heart" transform="translate(0)">
      <path id="Контур_1" data-name="Контур 1" d="M26.585,0A9.7,9.7,0,0,0,18.14,4.916,9.7,9.7,0,0,0,9.7,0C4.341,0,0,4.941,0,10.268c0,13.38,18.14,22.715,18.14,22.715s18.14-9.335,18.14-22.715C36.281,4.941,31.94,0,26.585,0Zm0,0" transform="translate(0 0)" fill="#f5486b"/>
      <path id="Контур_2" data-name="Контур 2" d="M2.49,10.268C2.49,5.339,6.189.75,10.961.089A9.6,9.6,0,0,0,9.646,0C4.319,0,0,4.941,0,10.268c0,13.38,18.047,22.715,18.047,22.715s.467-.242,1.245-.7c-4.077-2.4-16.8-10.779-16.8-22.015Zm0,0" transform="translate(0 0)" fill="#f5486b"/>
    </g>
  </g>
</svg>
