<svg xmlns="http://www.w3.org/2000/svg" width="42.16" height="36.947" viewBox="0 0 42.16 36.947">
  <defs>
    <style>
      .cls-1 {
        fill: #4b4b4b;
      }
    </style>
  </defs>
  <g id="iconfinder_General_Office_30_3592857" transform="translate(-1.687 -4.429)">
    <path id="Контур_940" data-name="Контур 940" class="cls-1" d="M41.852,46.454H3.682a2.531,2.531,0,0,1,0-4.947h38.17a2.531,2.531,0,0,1,0,4.947Z" transform="translate(0 -21.078)"/>
    <path id="Контур_952" data-name="Контур 952" class="cls-1" d="M41.852,46.454H3.682a2.531,2.531,0,0,1,0-4.947h38.17a2.531,2.531,0,0,1,0,4.947Z" transform="translate(0 -37.078)"/>
    <path id="Контур_951" data-name="Контур 951" class="cls-1" d="M41.852,46.454H3.682a2.531,2.531,0,0,1,0-4.947h38.17a2.531,2.531,0,0,1,0,4.947Z" transform="translate(0 -5.078)"/>
    <path id="Контур_941" data-name="Контур 941" class="cls-1" d="M41.852,83.211H3.682a2,2,0,0,1,0-3.992h38.17a2,2,0,0,1,0,3.992Z" transform="translate(0 -42.198)"/>
  </g>
</svg>
