<?xml version="1.0" standalone="no"?>
<!DOCTYPE svg PUBLIC "-//W3C//DTD SVG 20010904//EN"
 "http://www.w3.org/TR/2001/REC-SVG-20010904/DTD/svg10.dtd">
<svg version="1.0" xmlns="http://www.w3.org/2000/svg"
 width="660.000000pt" height="660.000000pt" viewBox="0 0 660.000000 660.000000"
 preserveAspectRatio="xMidYMid meet">

<g transform="translate(0.000000,660.000000) scale(0.100000,-0.100000)"
fill="#f24e6a" stroke="none">
<path d="M3040 6570 c-702 -60 -1361 -330 -1906 -780 -125 -103 -343 -325
-448 -455 -135 -169 -268 -376 -365 -567 -212 -421 -321 -866 -321 -1319 0
-398 81 -749 254 -1104 368 -750 1077 -1284 1936 -1458 764 -155 1587 31 2191
494 135 104 138 108 29 42 -478 -287 -1067 -376 -1615 -244 -381 92 -702 272
-994 556 -436 425 -675 1022 -647 1619 40 854 456 1624 1142 2114 838 598
1943 673 2854 195 683 -358 1188 -994 1381 -1743 28 -107 39 -139 39 -112 0
26 -53 264 -81 362 -156 550 -436 1027 -844 1436 -522 523 -1158 839 -1900
944 -168 24 -541 35 -705 20z"/>
<path d="M3507 5750 c-196 -26 -318 -54 -502 -115 -176 -58 -306 -113 -435
-183 -140 -75 -356 -219 -450 -300 -8 -8 10 1 40 18 127 73 346 173 459 210
663 218 1375 103 1953 -315 111 -80 358 -327 445 -445 384 -522 509 -1146 367
-1825 -225 -1067 -1076 -1906 -2144 -2114 -896 -174 -1812 105 -2457 748 -247
246 -455 550 -582 852 -56 133 -134 366 -151 457 -7 34 -16 62 -20 62 -4 0 -4
-20 1 -45 128 -684 436 -1274 919 -1755 518 -518 1128 -825 1872 -942 197 -31
701 -33 903 -5 753 107 1396 419 1924 932 536 522 852 1161 932 1885 15 141
15 439 0 575 -125 1090 -981 2004 -2117 2260 -294 66 -665 84 -957 45z"/>
</g>
</svg>
