<svg xmlns="http://www.w3.org/2000/svg" width="39" height="39" viewBox="0 0 39 39">
  <g id="Сгруппировать_443" data-name="Сгруппировать 443" transform="translate(-1617.174 -953.174)">
    <circle id="Эллипс_23" data-name="Эллипс 23" cx="19.5" cy="19.5" r="19.5" transform="translate(1617.174 953.174)" fill="#1877f2"/>
    <g id="Icons" transform="translate(1625.691 962.81)">
      <path id="Контур_991" data-name="Контур 991" d="M19.737,34.347l15.423-8.2a1.493,1.493,0,0,0,0-2.636L19.928,15.4a1.493,1.493,0,0,0-1-.144l-3.687.758a1.493,1.493,0,0,0-.934,2.3L17.6,23.165a1.9,1.9,0,0,0,1.442.827l12.239.832-12.505.93a1.493,1.493,0,0,0-1.125.651l-3.378,4.983a1.493,1.493,0,0,0,.956,2.3l3.908.745A.915.915,0,0,0,19.737,34.347Z" transform="translate(-14.014 -15.228)" fill="none" stroke="#fff" stroke-linecap="round" stroke-linejoin="round" stroke-miterlimit="10" stroke-width="0.7"/>
    </g>
  </g>
</svg>
