<svg xmlns="http://www.w3.org/2000/svg" width="51.245" height="53.095" viewBox="0 0 51.245 53.095">
  <g id="iconfinder_Artboard_14_5412957" transform="translate(0 0)">
    <path id="Контур_972" data-name="Контур 972" d="M73.287,61.24a.771.771,0,0,0,.452-.146l5.255-3.781a.8.8,0,0,0,.114-.1h0c.012-.012.024-.025.034-.038a.77.77,0,0,0,.187-.509c0-.023,0-.046,0-.069h0a.772.772,0,0,0-.246-.493h0a49.181,49.181,0,0,0-35.583-12.95h-.015a.769.769,0,0,0-.525.251l-.014.016h0a.766.766,0,0,0-.187.5c0,.012,0,.023,0,.035a.779.779,0,0,0,.07.289.768.768,0,0,0,.187.253l3.975,3.555L43.363,49.88a.773.773,0,0,0-.066,1.344l3.672,2.324L43,57.62a.773.773,0,0,0,.793,1.275,37.948,37.948,0,0,1,29.149,2.261A.774.774,0,0,0,73.287,61.24Z" transform="translate(-42.753 -27.328)" fill="#efd99c"/>
    <path id="Контур_973" data-name="Контур 973" d="M14.67,68.266l7.27-4.356.533-8.458a.773.773,0,0,1,1.28-.534l6.389,5.568,8.209-2.107a.773.773,0,0,1,.9,1.052l-3.32,7.8,4.541,7.156a.773.773,0,0,1-.721,1.185l-8.442-.749-5.4,6.53a.773.773,0,0,1-1.349-.32l-1.9-8.26-7.88-3.121a.773.773,0,0,1-.113-1.382Z" transform="translate(10.65 -32.96)" fill="#f7e4a6"/>
    <path id="Контур_974" data-name="Контур 974" d="M77.263,94.394,80.8,92.278l.259-4.11a.773.773,0,0,1,1.28-.534l3.1,2.705,3.988-1.024a.773.773,0,0,1,.9,1.052l-1.613,3.788,2.206,3.477a.773.773,0,0,1-.721,1.185l-4.1-.364-2.626,3.172a.773.773,0,0,1-1.349-.32l-.921-4.013-3.829-1.516a.773.773,0,0,1-.113-1.382Z" transform="translate(-72.065 -48.811)" fill="#f7e4a6"/>
    <path id="Контур_975" data-name="Контур 975" d="M25.552,17.6l2.481-1.487.182-2.886a.773.773,0,0,1,1.28-.534l2.18,1.9,2.8-.719a.773.773,0,0,1,.9,1.052l-1.133,2.661,1.549,2.442a.773.773,0,0,1-.721,1.185l-2.88-.256L30.35,23.182A.773.773,0,0,1,29,22.862l-.647-2.818-2.689-1.065a.773.773,0,0,1-.113-1.382Z" transform="translate(9.72 -12.5)" fill="#f7e4a6"/>
    <path id="Контур_976" data-name="Контур 976" d="M63.481,20.94l2.8-1.679L66.489,16a.773.773,0,0,1,1.28-.534l2.463,2.146,3.164-.812a.773.773,0,0,1,.9,1.052l-1.28,3.005,1.75,2.758a.773.773,0,0,1-.721,1.185l-3.254-.288-2.083,2.517a.773.773,0,0,1-1.349-.32l-.731-3.184-3.037-1.2a.773.773,0,0,1-.113-1.382Z" transform="translate(-48.806 -13.845)" fill="#f7e4a6"/>
  </g>
</svg>
