<svg xmlns="http://www.w3.org/2000/svg" width="42.616" height="38.743" viewBox="0 0 42.616 38.743">
  <defs>
    <style>
      .cls-1 {
        fill: #fff;
      }

      .cls-2 {
        fill: #eaeaea;
      }

      .cls-3 {
        font-size: 26px;
        font-family: Nunito-Bold, Nunito;
        font-weight: 700;
      }
    </style>
  </defs>
  <g id="Сгруппировать_386" data-name="Сгруппировать 386" transform="translate(-301.087 -582.545)">
    <g id="Сгруппировать_330" data-name="Сгруппировать 330" transform="translate(301.087 582.545)">
      <g id="heart" transform="translate(0 0)">
        <path id="Контур_1" data-name="Контур 1" class="cls-1" d="M31.228,0a11.389,11.389,0,0,0-9.919,5.775A11.389,11.389,0,0,0,11.389,0C5.1,0,0,5.8,0,12.061,0,27.778,21.308,38.743,21.308,38.743S42.616,27.778,42.616,12.061C42.616,5.8,37.517,0,31.228,0Zm0,0" transform="translate(0 0)"/>
        <path id="Контур_2" data-name="Контур 2" class="cls-2" d="M2.924,12.061C2.924,6.272,7.269.881,12.875.1A11.277,11.277,0,0,0,11.331,0C5.074,0,0,5.8,0,12.061,0,27.777,21.2,38.742,21.2,38.742s.548-.284,1.462-.822C17.872,35.1,2.924,25.26,2.924,12.061Zm0,0" transform="translate(0 0)"/>
      </g>
      <text id="A" class="cls-3" transform="translate(11.221 27.371)"><tspan x="0" y="0">A</tspan></text>
    </g>
  </g>
</svg>
